/* XPM */
static char * tremulous_xpm[] = {
"48 48 39 1",
" 	c None",
".	c #0F0F0F",
"+	c #181818",
"@	c #000000",
"#	c #282828",
"$	c #212121",
"%	c #060606",
"&	c #1D1D1D",
"*	c #252525",
"=	c #080808",
"-	c #0E0E0E",
";	c #050505",
">	c #0B0B0B",
",	c #0C0C0C",
"'	c #232323",
")	c #1F1F1F",
"!	c #030303",
"~	c #0D0D0D",
"{	c #040404",
"]	c #020202",
"^	c #141414",
"/	c #1E1E1E",
"(	c #131313",
"_	c #111111",
":	c #010101",
"<	c #191919",
"[	c #090909",
"}	c #292929",
"|	c #070707",
"1	c #121212",
"2	c #1B1B1B",
"3	c #161616",
"4	c #0A0A0A",
"5	c #222222",
"6	c #242424",
"7	c #1A1A1A",
"8	c #151515",
"9	c #101010",
"0	c #171717",
"                                                ",
"                         ...                    ",
"                       +@@@@@#                  ",
"                      $@@@@@@%                  ",
"                     &@@@@@@@@               *  ",
"  =-                 ;@@@@@@@@>             ,@- ",
"  @@'                ;@@@@@@@@@            ,@@  ",
"  )@!                ;@@@@@@@@@           ~@@;  ",
"   ;@{               ]@@@@@@@@@~         ,@@;   ",
"   ^@@]             /@@@@@@@@@@@(       -@@;    ",
"    .@@;            /@@@@@@@@@@@       -@@@/    ",
"     _@@]           /@@@@@@@@@@@     #:@@@_     ",
"      @@@;          /@@@@@@@@@@<     :@@@-      ",
"       :@@!          ]@@@@@@@@@     @@@@-       ",
"       $@@@;         ;@@@@@@@@[   ~]@@@-        ",
"        %@@@;       }!@@@@@@@@- }|@@@@,         ",
"         !@@@;     1@@@@@@@@@@ 2@@@@@~          ",
"          ;@@@%    [@@@@@@@@@@@@@@@@,           ",
"           @@@@{|||:@@@@@@@@@@@@@@!-            ",
"           -@@@@@@@@@@@@@@@@@@@@@]              ",
"            .@@@@@@@@@@@@@@@@@@@{               ",
"              ]@@@@@@@@@@@@@@@@@                ",
"               .@@@@@@@@@@@@@@@@                ",
"                +@@@@@@@@@@@@@@@@@@@@@@@@@@/    ",
"                 =@@@@@@@@@@@@@@@@@@@@@@@@@/    ",
"               .=@@@@@@@@@@@@@@@@@@%            ",
"             ,@@@@@@@@@@@@@@@@@@@@@             ",
"        2>]@@@@@@@@@@@@@@@@@@@@@@@3             ",
"      *:@@@@@@@@@@@@@@@@@@@@@@@@@^              ",
"      @@@|||  4]@@@@@@@@@@@@@@@@@               ",
"      556       _@@@@@@@@@@@@@@@@3              ",
"                 >@@@@@@@@@@@@@@@@+             ",
"                 ;@@@@@@@@@@@@@@@@@7            ",
"                &@@@@@@@@@@@@@@@@@@@+           ",
"                @@@@@@@@@@@@@@@@@@@@@/          ",
"               8@@@@@@@@@@@@@@@[  =@@|          ",
"               ;@@:::@@@@@@@@@[    %@@[         ",
"               @@9   (@@@@@@@4      =@@         ",
"              ,@@      {:@@:         {@!        ",
"              !@@        <<          3@@0       ",
"              !@-                     3@@6      ",
"              ]@(                      (@[      ",
"             7@@                        ]@      ",
"             7@@                         *      ",
"             7@}                                ",
"             7@                                 ",
"              .                                 ",
"                                                "};
