<?xml version="1.0" encoding="UTF-8" standalone="no"?>
<!-- Created with Inkscape (http://www.inkscape.org/) -->

<svg
   xmlns:dc="http://purl.org/dc/elements/1.1/"
   xmlns:cc="http://creativecommons.org/ns#"
   xmlns:rdf="http://www.w3.org/1999/02/22-rdf-syntax-ns#"
   xmlns:svg="http://www.w3.org/2000/svg"
   xmlns="http://www.w3.org/2000/svg"
   xmlns:sodipodi="http://sodipodi.sourceforge.net/DTD/sodipodi-0.dtd"
   xmlns:inkscape="http://www.inkscape.org/namespaces/inkscape"
   width="500"
   height="500"
   id="svg2980"
   version="1.1"
   inkscape:version="0.47 r22583"
   sodipodi:docname="zeitgeist-logo.svg">
  <defs
     id="defs3" />
  <sodipodi:namedview
     inkscape:document-units="mm"
     id="base"
     pagecolor="#ffffff"
     bordercolor="#666666"
     borderopacity="1.0"
     inkscape:pageopacity="0.0"
     inkscape:pageshadow="2"
     inkscape:zoom="1"
     inkscape:cx="619.4329"
     inkscape:cy="217.71717"
     inkscape:current-layer="layer1"
     showgrid="false"
     inkscape:window-width="1280"
     inkscape:window-height="750"
     inkscape:window-x="0"
     inkscape:window-y="0"
     inkscape:window-maximized="1" />
  <metadata
     id="metadata4">
    <rdf:RDF>
      <cc:Work
         rdf:about="">
        <dc:format>image/svg+xml</dc:format>
        <dc:type
           rdf:resource="http://purl.org/dc/dcmitype/StillImage" />
        <dc:title />
      </cc:Work>
    </rdf:RDF>
  </metadata>
  <g
     inkscape:label="Layer 1"
     inkscape:groupmode="layer"
     id="layer1"
     transform="translate(0,-552.36218)">
    <path
       style="fill:#298daf;fill-opacity:1"
       d="m 247.6875,94.375 c -71.53733,0 -129.53125,61.09674 -129.53125,136.46875 0,23.69532 5.76158,45.9869 15.84375,65.40625 21.87947,80.62787 -47.419503,94.1332 9,105.46875 50.51427,10.14909 131.46957,4.02662 197.34375,-75.46875 23.54312,-28.41127 34.18067,-59.60584 36.875,-95.40625 0,-75.37201 -57.99392,-136.46875 -129.53125,-136.46875 z"
       transform="translate(0,552.36218)"
       id="path2885"
       sodipodi:nodetypes="cscsscc" />
    <path
       d="m 376.50106,783.92549 c 0,0 27.35403,-17.46935 25.00005,-40.95438 -4.13073,-22.67513 -27.54322,-27.4307 -47.21045,-27.99628 -18.17798,-0.53073 11.63914,69.39362 11.63914,69.39362 l 10.57126,-0.44296 z"
       style="fill:#298daf;fill-opacity:1;fill-rule:nonzero;stroke:none"
       id="path2836"
       sodipodi:nodetypes="ccccc" />
    <path
       d="m 138.89064,842.02454 c 0,0 -35.74441,5.16235 -40.017718,-23.35234 -4.27331,-28.51469 18.934398,-35.83053 31.909558,-62.36138 12.29302,-29.85385 8.10816,85.71372 8.10816,85.71372"
       style="fill:#298daf;fill-opacity:1;fill-rule:nonzero;stroke:none"
       id="path2832"
       sodipodi:nodetypes="czcc" />
    <g
       id="g3717"
       transform="matrix(0.54386969,0,0,-0.56233263,224.81021,1146.129)">
      <path
         d="m -84.848606,679.98406 c 0,87.813 71.187,159 159,159 87.812996,0 158.999996,-71.187 158.999996,-159 0,-87.813 -71.187,-159 -158.999996,-159 -87.813,0 -159,71.187 -159,159"
         style="fill:#ffffff;fill-opacity:1;fill-rule:nonzero;stroke:none"
         id="path2871" />
      <path
         d="m 32.151394,690.98406 c 0,23.196 18.805,42 42,42 23.195,0 41.999996,-18.804 41.999996,-42 0,-23.196 -18.804996,-42 -41.999996,-42 -23.195,0 -42,18.804 -42,42"
         style="fill:#298daf;fill-opacity:1;fill-rule:nonzero;stroke:none"
         id="path2875" />
      <path
         style="fill:#298daf;fill-opacity:1;fill-rule:nonzero;stroke:none"
         d="m 399.78125,283.53125 c -4.27389,0.56536 -12.88746,11.1362 -16.65625,16 1.20072,-0.13799 2.41994,-0.1875 3.65625,-0.1875 8.13089,0 15.55605,3.0519 21.28125,8.125 -0.73229,-6.85508 -2.85228,-22.15074 -7.28125,-23.84375 -0.2961,-0.11317 -0.63108,-0.14255 -1,-0.0937 z M 409.8125,357.25 c -5.91534,6.05247 -14.05208,9.78125 -23.03125,9.78125 -1.14061,0 -2.26444,-0.0385 -3.375,-0.15625 0.46933,0.60945 32.29402,41.93777 34.25,41.0625 2.13124,-0.95513 -6.54148,-44.24514 -7.84375,-50.6875 z"
         transform="matrix(1.8386757,0,0,-1.7783069,-636.99637,1283.4987)"
         id="path2879" />
    </g>
  </g>
</svg>
